<?xml version="1.0" encoding="UTF-8"?>
<!DOCTYPE svg PUBLIC "-//W3C//DTD SVG 1.1//EN" "http://www.w3.org/Graphics/SVG/1.1/DTD/svg11.dtd">
<svg xmlns="http://www.w3.org/2000/svg" version="1.1" width="192px" height="192px" style="shape-rendering:geometricPrecision; text-rendering:geometricPrecision; image-rendering:optimizeQuality; fill-rule:evenodd; clip-rule:evenodd" xmlns:xlink="http://www.w3.org/1999/xlink">
<g><path style="opacity:0.031" fill="#64dafb" d="M 53.5,12.5 C 56.6399,11.3592 59.9733,11.1925 63.5,12C 60.1832,12.4983 56.8499,12.665 53.5,12.5 Z"/></g>
<g><path style="opacity:0.031" fill="#64dafb" d="M 126.5,11.5 C 127.833,12.1667 127.833,12.1667 126.5,11.5 Z"/></g>
<g><path style="opacity:0.031" fill="#64dafb" d="M 128.5,12.5 C 129.251,11.4265 130.251,11.2599 131.5,12C 130.552,12.4828 129.552,12.6495 128.5,12.5 Z"/></g>
<g><path style="opacity:0.031" fill="#64dafb" d="M 132.5,11.5 C 133.833,12.1667 133.833,12.1667 132.5,11.5 Z"/></g>
<g><path style="opacity:0.031" fill="#64dafb" d="M 134.5,11.5 C 135.833,12.1667 135.833,12.1667 134.5,11.5 Z"/></g>
<g><path style="opacity:0.031" fill="#64dafb" d="M 136.5,11.5 C 137.833,12.1667 137.833,12.1667 136.5,11.5 Z"/></g>
<g><path style="opacity:0.031" fill="#64dafb" d="M 52.5,13.5 C 51.8333,12.1667 51.8333,12.1667 52.5,13.5 Z"/></g>
<g><path style="opacity:0.031" fill="#64dafb" d="M 64.5,12.5 C 65.8333,13.1667 65.8333,13.1667 64.5,12.5 Z"/></g>
<g><path style="opacity:0.031" fill="#64dafb" d="M 66.5,12.5 C 67.8333,13.1667 67.8333,13.1667 66.5,12.5 Z"/></g>
<g><path style="opacity:0.031" fill="#64dafb" d="M 124.5,12.5 C 125.833,13.1667 125.833,13.1667 124.5,12.5 Z"/></g>
<g><path style="opacity:0.031" fill="#64dafb" d="M 139.5,12.5 C 140.833,13.1667 140.833,13.1667 139.5,12.5 Z"/></g>
<g><path style="opacity:0.031" fill="#64dafb" d="M 48.5,13.5 C 49.8333,14.1667 49.8333,14.1667 48.5,13.5 Z"/></g>
<g><path style="opacity:0.99" fill="#61dbfb" d="M 52.5,13.5 C 56.5,13.5 60.5,13.5 64.5,13.5C 66.936,14.871 69.6027,15.871 72.5,16.5C 73.5137,17.6737 74.847,18.3404 76.5,18.5C 76.8417,19.3382 77.5084,19.6716 78.5,19.5C 78.9731,20.9063 79.9731,21.573 81.5,21.5C 82.4363,22.9744 83.7697,23.9744 85.5,24.5C 86.9448,26.0627 88.6115,27.396 90.5,28.5C 91.9142,30.0542 93.5808,31.3875 95.5,32.5C 101.055,27.904 106.722,23.5706 112.5,19.5C 115.485,18.6743 118.151,17.341 120.5,15.5C 126.371,13.6774 132.371,13.1774 138.5,14C 140.066,14.6082 141.4,15.4415 142.5,16.5C 141.761,16.369 141.094,16.5357 140.5,17C 144.302,19.0875 146.802,22.2541 148,26.5C 148.464,25.9056 148.631,25.2389 148.5,24.5C 149.167,25.1667 149.833,25.8333 150.5,26.5C 151.383,31.7973 152.049,37.1306 152.5,42.5C 151.832,49.1735 151.166,55.8401 150.5,62.5C 149.227,63.0768 149.227,63.7435 150.5,64.5C 152.729,65.5771 155.063,66.2437 157.5,66.5C 158.78,67.9313 160.447,68.5979 162.5,68.5C 163.514,69.6737 164.847,70.3404 166.5,70.5C 168.336,72.588 170.669,73.9213 173.5,74.5C 174.945,76.0627 176.611,77.396 178.5,78.5C 180.167,80.8333 182.167,82.8333 184.5,84.5C 185.167,86.1667 185.833,87.8333 186.5,89.5C 186.833,89.5 187.167,89.5 187.5,89.5C 188.833,93.5 188.833,97.5 187.5,101.5C 186.662,101.842 186.328,102.508 186.5,103.5C 185.662,103.842 185.328,104.508 185.5,105.5C 184.833,105.5 184.5,105.833 184.5,106.5C 183.094,106.973 182.427,107.973 182.5,109.5C 181.833,109.5 181.5,109.833 181.5,110.5C 180.833,110.5 180.5,110.833 180.5,111.5C 178.973,111.427 177.973,112.094 177.5,113.5C 176.833,113.5 176.5,113.833 176.5,114.5C 175.833,114.5 175.5,114.833 175.5,115.5C 173.973,115.427 172.973,116.094 172.5,117.5C 171.508,117.328 170.842,117.662 170.5,118.5C 169.508,118.328 168.842,118.662 168.5,119.5C 165.515,120.326 162.849,121.659 160.5,123.5C 158.447,123.402 156.78,124.069 155.5,125.5C 154.209,125.263 153.209,125.596 152.5,126.5C 148.5,126.833 148.5,127.167 152.5,127.5C 152.5,129.167 152.5,130.833 152.5,132.5C 152.734,142.337 152.401,152.337 151.5,162.5C 150.596,163.209 150.263,164.209 150.5,165.5C 149.662,165.842 149.328,166.508 149.5,167.5C 148.662,167.842 148.328,168.508 148.5,169.5C 147.094,169.973 146.427,170.973 146.5,172.5C 145.833,172.5 145.5,172.833 145.5,173.5C 144.833,173.5 144.5,173.833 144.5,174.5C 142.566,175.11 140.899,176.11 139.5,177.5C 133.797,177.625 128.13,177.292 122.5,176.5C 120.151,174.659 117.485,173.326 114.5,172.5C 114.158,171.662 113.492,171.328 112.5,171.5C 112.158,170.662 111.492,170.328 110.5,170.5C 110.027,169.094 109.027,168.427 107.5,168.5C 106.738,166.738 105.404,165.738 103.5,165.5C 102.415,163.413 100.749,162.08 98.5,161.5C 97.1233,158.274 95.4566,157.941 93.5,160.5C 92.8333,160.5 92.5,160.833 92.5,161.5C 91.8333,161.5 91.5,161.833 91.5,162.5C 90.8333,162.5 90.5,162.833 90.5,163.5C 88.9731,163.427 87.9731,164.094 87.5,165.5C 86.8333,165.5 86.5,165.833 86.5,166.5C 84.9731,166.427 83.9731,167.094 83.5,168.5C 82.8333,168.5 82.5,168.833 82.5,169.5C 80.326,169.75 78.6594,170.75 77.5,172.5C 76.5084,172.328 75.8417,172.662 75.5,173.5C 73.847,173.66 72.5137,174.326 71.5,175.5C 66.2718,177.012 60.9384,178.012 55.5,178.5C 53.6976,177.542 51.6976,176.875 49.5,176.5C 49.0269,175.094 48.0269,174.427 46.5,174.5C 45.9744,172.77 44.9744,171.436 43.5,170.5C 42.4861,168.426 41.4861,166.426 40.5,164.5C 37.9281,151.777 38.2614,139.111 41.5,126.5C 40.5,126.5 39.5,126.5 38.5,126.5C 35.46,124.654 32.1267,123.321 28.5,122.5C 27.4863,121.326 26.153,120.66 24.5,120.5C 23.4863,119.326 22.153,118.66 20.5,118.5C 20.1583,117.662 19.4916,117.328 18.5,117.5C 18.0269,116.094 17.0269,115.427 15.5,115.5C 14.0892,113.086 12.0892,111.419 9.5,110.5C 9.26242,108.596 8.26242,107.262 6.5,106.5C 3.09856,101.234 2.09856,95.5671 3.5,89.5C 4.33825,89.1583 4.67158,88.4916 4.5,87.5C 5.16667,87.1667 5.83333,86.8333 6.5,86.5C 6.36899,87.2389 6.53566,87.9056 7,88.5C 8.46688,85.7336 10.3002,83.2336 12.5,81C 12.2716,80.6012 11.9382,80.4346 11.5,80.5C 13.7922,77.6952 16.4589,75.3619 19.5,73.5C 21.0269,73.573 22.0269,72.9063 22.5,71.5C 23.4916,71.6716 24.1583,71.3382 24.5,70.5C 25.4916,70.6716 26.1583,70.3382 26.5,69.5C 28.403,69.2041 30.0697,68.5375 31.5,67.5C 33.403,67.2041 35.0697,66.5375 36.5,65.5C 38.3084,65.5086 39.9751,65.0086 41.5,64C 37.6108,50.8307 37.6108,37.6641 41.5,24.5C 42.2216,24.9175 42.7216,25.5842 43,26.5C 44.2106,23.2409 46.0439,20.4075 48.5,18C 48.2716,17.6012 47.9382,17.4346 47.5,17.5C 47.8333,16.8333 48.1667,16.1667 48.5,15.5C 50.153,15.3404 51.4863,14.6737 52.5,13.5 Z M 64.5,24.5 C 68.4201,25.1266 71.7534,26.7933 74.5,29.5C 75.4916,29.3284 76.1583,29.6618 76.5,30.5C 75.453,31.0778 75.6197,31.7445 77,32.5C 77.3988,32.2716 77.5654,31.9382 77.5,31.5C 78.4916,31.3284 79.1583,31.6618 79.5,32.5C 79.0618,32.4346 78.7284,32.6012 78.5,33C 79.3333,33.8333 80.1667,34.6667 81,35.5C 81.3988,35.2716 81.5654,34.9382 81.5,34.5C 83.0269,34.427 84.0269,35.0937 84.5,36.5C 84.0618,36.4346 83.7284,36.6012 83.5,37C 87.1482,39.4973 86.8148,41.8307 82.5,44C 82.7284,44.3988 83.0618,44.5654 83.5,44.5C 83.573,46.0269 82.9063,47.0269 81.5,47.5C 81.5654,47.0618 81.3988,46.7284 81,46.5C 77.7781,48.7715 75.9448,51.4382 75.5,54.5C 75.3059,56.9118 73.9726,57.9118 71.5,57.5C 64.6424,58.9236 57.6424,60.2569 50.5,61.5C 49.8413,58.5448 49.5079,55.5448 49.5,52.5C 50.0142,44.5591 51.0142,36.5591 52.5,28.5C 52.3764,27.8933 52.0431,27.56 51.5,27.5C 51.3284,26.5084 51.6618,25.8417 52.5,25.5C 52.4346,25.9382 52.6012,26.2716 53,26.5C 54.0674,25.8095 55.2341,25.3095 56.5,25C 55.552,24.5172 54.552,24.3505 53.5,24.5C 57.1078,22.2415 60.7744,22.2415 64.5,24.5 Z M 137.5,24.5 C 136.761,24.369 136.094,24.5357 135.5,25C 137.259,26.008 138.426,27.508 139,29.5C 139.464,28.9056 139.631,28.2389 139.5,27.5C 140.927,29.1484 141.76,31.1484 142,33.5C 142.846,42.9199 142.346,52.2532 140.5,61.5C 139.209,61.7373 138.209,61.404 137.5,60.5C 131.301,59.9114 125.301,58.9114 119.5,57.5C 118.209,57.7373 117.209,57.404 116.5,56.5C 117.043,56.44 117.376,56.1067 117.5,55.5C 116.113,53.79 114.779,52.1233 113.5,50.5C 113.5,49.8333 113.167,49.5 112.5,49.5C 111.758,47.6503 110.758,46.9836 109.5,47.5C 107.738,46.7377 106.738,45.4044 106.5,43.5C 106.938,43.5654 107.272,43.3988 107.5,43C 106.29,41.9609 105.29,40.7942 104.5,39.5C 106.628,38.4625 107.628,37.1292 107.5,35.5C 107.973,34.0937 108.973,33.427 110.5,33.5C 111.078,34.547 111.744,34.3803 112.5,33C 112.272,32.6012 111.938,32.4346 111.5,32.5C 111.973,31.0937 112.973,30.427 114.5,30.5C 115.659,28.7497 117.326,27.7497 119.5,27.5C 120.514,26.3263 121.847,25.6596 123.5,25.5C 124.209,24.596 125.209,24.2627 126.5,24.5C 130.199,21.9348 133.865,21.9348 137.5,24.5 Z M 104.5,38.5 C 104.5,38.8333 104.5,39.1667 104.5,39.5C 103.833,39.5 103.5,39.8333 103.5,40.5C 102.243,39.3774 102.576,38.7107 104.5,38.5 Z M 94.5,47.5 C 95.6226,46.2426 96.2893,46.5759 96.5,48.5C 96.1667,48.5 95.8333,48.5 95.5,48.5C 95.5,47.8333 95.1667,47.5 94.5,47.5 Z M 94.5,47.5 C 95.1667,47.5 95.5,47.8333 95.5,48.5C 97.5002,50.671 99.3335,53.0043 101,55.5C 101.464,54.9056 101.631,54.2389 101.5,53.5C 102.478,53.811 103.145,54.4777 103.5,55.5C 97.8625,56.6632 92.1959,56.8299 86.5,56C 87.0442,55.2828 87.7109,54.7828 88.5,54.5C 88.4346,54.9382 88.6012,55.2716 89,55.5C 90.5,54 92,52.5 93.5,51C 93.2716,50.6012 92.9382,50.4346 92.5,50.5C 92.427,48.9731 93.0937,47.9731 94.5,47.5 Z M 111.5,49.5 C 111.833,49.5 112.167,49.5 112.5,49.5C 113.167,49.5 113.5,49.8333 113.5,50.5C 113.5,51.1667 113.5,51.8333 113.5,52.5C 112.094,52.0269 111.427,51.0269 111.5,49.5 Z M 112.5,68.5 C 112.062,68.4346 111.728,68.6012 111.5,69C 113.314,71.4795 114.981,73.9795 116.5,76.5C 116.5,77.1667 116.833,77.5 117.5,77.5C 117.66,79.153 118.326,80.4863 119.5,81.5C 119.5,82.1667 119.833,82.5 120.5,82.5C 122.326,87.4844 124.659,92.1511 127.5,96.5C 127.672,97.4916 127.338,98.1583 126.5,98.5C 126.19,97.2617 125.69,97.2617 125,98.5C 124.308,99.4368 124.475,100.103 125.5,100.5C 125.672,101.492 125.338,102.158 124.5,102.5C 124.672,103.492 124.338,104.158 123.5,104.5C 123.19,103.262 122.69,103.262 122,104.5C 121.167,106.167 120.333,107.833 119.5,109.5C 119.624,110.107 119.957,110.44 120.5,110.5C 120.573,112.027 119.906,113.027 118.5,113.5C 118.19,112.262 117.69,112.262 117,113.5C 116.626,114.416 116.126,115.25 115.5,116C 115.728,116.399 116.062,116.565 116.5,116.5C 116.672,117.492 116.338,118.158 115.5,118.5C 115.573,120.027 114.906,121.027 113.5,121.5C 113.19,120.262 112.69,120.262 112,121.5C 111.308,122.437 111.475,123.103 112.5,123.5C 101.341,124.659 90.0076,124.826 78.5,124C 77.7476,123.329 77.4142,122.496 77.5,121.5C 78.8333,120.833 78.8333,120.167 77.5,119.5C 77.5,118.833 77.1667,118.5 76.5,118.5C 75.9278,116.745 75.0945,115.078 74,113.5C 73.31,112.262 72.81,112.262 72.5,113.5C 71.6618,113.158 71.3284,112.492 71.5,111.5C 71.9382,111.565 72.2716,111.399 72.5,111C 71.2062,108.913 70.0395,106.746 69,104.5C 68.31,103.262 67.81,103.262 67.5,104.5C 65.127,102.421 63.7936,99.7541 63.5,96.5C 65.7258,93.0554 67.7258,89.3888 69.5,85.5C 69.3764,84.8933 69.0431,84.56 68.5,84.5C 68.427,82.9731 69.0937,81.9731 70.5,81.5C 70.81,82.7383 71.31,82.7383 72,81.5C 72.7485,79.6675 73.7485,78.0009 75,76.5C 75.6917,75.5632 75.525,74.8966 74.5,74.5C 74.427,72.9731 75.0937,71.9731 76.5,71.5C 76.81,72.7383 77.31,72.7383 78,71.5C 78.3742,70.5838 78.8742,69.7504 79.5,69C 79.2716,68.6012 78.9382,68.4346 78.5,68.5C 78.9175,67.7784 79.5842,67.2784 80.5,67C 90.8333,66.3333 101.167,66.3333 111.5,67C 112.056,67.3826 112.389,67.8826 112.5,68.5 Z M 63.5,69.5 C 64.2506,68.4265 65.2506,68.2599 66.5,69C 65.9558,69.7172 65.2891,70.2172 64.5,70.5C 64.5,69.8333 64.1667,69.5 63.5,69.5 Z M 127.5,69.5 C 126.833,69.5 126.5,69.8333 126.5,70.5C 125.711,70.2172 125.044,69.7172 124.5,69C 125.749,68.2599 126.749,68.4265 127.5,69.5 Z M 63.5,69.5 C 62.375,70.6522 62.375,71.6522 63.5,72.5C 63.573,74.0269 62.9063,75.0269 61.5,75.5C 61.6716,76.4916 61.3382,77.1583 60.5,77.5C 60.5654,77.0618 60.3988,76.7284 60,76.5C 59.1482,77.5707 58.3149,78.5707 57.5,79.5C 57.6716,78.5084 57.3382,77.8417 56.5,77.5C 56.7373,76.209 56.404,75.209 55.5,74.5C 55.5774,73.2502 56.244,72.4169 57.5,72C 56.552,71.5172 55.552,71.3505 54.5,71.5C 54.5,72.5 54.5,73.5 54.5,74.5C 53.5655,73.4324 53.2322,72.099 53.5,70.5C 55.1667,70.5 56.8333,70.5 58.5,70.5C 59.9187,69.5489 61.5853,69.2155 63.5,69.5 Z M 127.5,69.5 C 130.86,69.6159 134.193,69.9492 137.5,70.5C 137.472,73.9164 136.472,76.9164 134.5,79.5C 134.167,76.8333 133.833,76.8333 133.5,79.5C 132.685,78.5707 131.852,77.5707 131,76.5C 130.601,76.7284 130.435,77.0618 130.5,77.5C 129.662,77.1583 129.328,76.4916 129.5,75.5C 128.094,75.0269 127.427,74.0269 127.5,72.5C 128.625,71.6522 128.625,70.6522 127.5,69.5 Z M 148.5,74.5 C 152.297,74.8723 155.63,76.2057 158.5,78.5C 161.089,78.461 163.089,79.461 164.5,81.5C 165.492,81.3284 166.158,81.6618 166.5,82.5C 168.027,82.427 169.027,83.0937 169.5,84.5C 171.027,84.427 172.027,85.0937 172.5,86.5C 172.062,86.4346 171.728,86.6012 171.5,87C 173.617,88.7309 175.117,90.8976 176,93.5C 176.464,92.9056 176.631,92.2389 176.5,91.5C 177.993,92.3121 178.66,93.6455 178.5,95.5C 178.564,97.5566 177.898,99.2233 176.5,100.5C 176.631,99.7611 176.464,99.0944 176,98.5C 174.542,100.96 172.709,103.127 170.5,105C 170.728,105.399 171.062,105.565 171.5,105.5C 171.027,106.906 170.027,107.573 168.5,107.5C 168.027,108.906 167.027,109.573 165.5,109.5C 164.486,110.674 163.153,111.34 161.5,111.5C 157.438,113.865 153.105,115.865 148.5,117.5C 147.893,117.376 147.56,117.043 147.5,116.5C 146.262,114.786 145.595,112.786 145.5,110.5C 144.596,109.791 144.263,108.791 144.5,107.5C 143.069,106.22 142.402,104.553 142.5,102.5C 141.069,101.22 140.402,99.5529 140.5,97.5C 141.306,96.0028 141.972,94.3361 142.5,92.5C 142.376,91.8933 142.043,91.56 141.5,91.5C 141.263,90.209 141.596,89.209 142.5,88.5C 142.369,89.2389 142.536,89.9056 143,90.5C 144.298,89.0544 144.465,87.7211 143.5,86.5C 143.263,85.209 143.596,84.209 144.5,83.5C 144.263,82.209 144.596,81.209 145.5,80.5C 145.699,78.0401 146.365,75.7067 147.5,73.5C 148.107,73.6236 148.44,73.9569 148.5,74.5 Z M 42.5,74.5 C 42.8333,78.5 43.1667,78.5 43.5,74.5C 45.0719,77.2154 46.0719,80.2154 46.5,83.5C 45.3789,85.0894 45.5456,86.7561 47,88.5C 47.4643,87.9056 47.631,87.2389 47.5,86.5C 48.9313,87.7804 49.5979,89.4471 49.5,91.5C 48.9569,91.56 48.6236,91.8933 48.5,92.5C 49.0276,94.3361 49.6942,96.0028 50.5,97.5C 50.5979,99.5529 49.9313,101.22 48.5,102.5C 48.5979,104.553 47.9313,106.22 46.5,107.5C 46.7373,108.791 46.404,109.791 45.5,110.5C 45.2792,107.903 44.7792,107.903 44,110.5C 43.2599,111.749 43.4265,112.749 44.5,113.5C 44.5,114.833 44.5,116.167 44.5,117.5C 41.4582,117.267 38.7916,116.267 36.5,114.5C 34.4471,114.598 32.7804,113.931 31.5,112.5C 29.847,112.34 28.5137,111.674 27.5,110.5C 25.9731,110.573 24.9731,109.906 24.5,108.5C 22.326,108.25 20.6594,107.25 19.5,105.5C 19.9382,105.565 20.2716,105.399 20.5,105C 19,103.5 17.5,102 16,100.5C 15.6012,100.728 15.4346,101.062 15.5,101.5C 12.6599,99.2849 11.9932,96.6182 13.5,93.5C 13.3433,94.8734 13.51,96.2068 14,97.5C 14.5637,93.8733 16.0637,90.7066 18.5,88C 18.2716,87.6012 17.9382,87.4346 17.5,87.5C 18.2623,85.7376 19.5956,84.7376 21.5,84.5C 21.9731,83.0937 22.9731,82.427 24.5,82.5C 24.8417,81.6618 25.5084,81.3284 26.5,81.5C 28.6123,79.2295 31.279,77.8961 34.5,77.5C 36.7916,75.7329 39.4582,74.7329 42.5,74.5 Z M 116.5,74.5 C 117.906,74.9731 118.573,75.9731 118.5,77.5C 118.167,77.5 117.833,77.5 117.5,77.5C 116.833,77.5 116.5,77.1667 116.5,76.5C 116.5,75.8333 116.5,75.1667 116.5,74.5 Z M 55.5,77.5 C 55.8333,77.5 56.1667,77.5 56.5,77.5C 56.3284,78.4916 56.6618,79.1583 57.5,79.5C 57.3284,80.4916 57.6618,81.1583 58.5,81.5C 58.6068,83.3786 58.1068,83.7119 57,82.5C 55.9914,80.9751 55.4914,79.3084 55.5,77.5 Z M 119.5,79.5 C 120.906,79.9731 121.573,80.9731 121.5,82.5C 121.167,82.5 120.833,82.5 120.5,82.5C 119.833,82.5 119.5,82.1667 119.5,81.5C 119.5,80.8333 119.5,80.1667 119.5,79.5 Z M 133.5,79.5 C 133.833,79.5 134.167,79.5 134.5,79.5C 134.688,81.1033 134.188,82.4366 133,83.5C 132.536,82.9056 132.369,82.2389 132.5,81.5C 133.338,81.1583 133.672,80.4916 133.5,79.5 Z M 110.5,105.5 C 110.5,106.167 110.5,106.833 110.5,107.5C 109.833,107.5 109.5,107.833 109.5,108.5C 109.167,108.5 108.833,108.5 108.5,108.5C 108.427,106.973 109.094,105.973 110.5,105.5 Z M 58.5,110.5 C 57.8333,110.5 57.5,110.833 57.5,111.5C 57.1667,111.5 56.8333,111.5 56.5,111.5C 56.281,110.325 56.6143,109.325 57.5,108.5C 58.2975,108.957 58.6309,109.624 58.5,110.5 Z M 132.5,109.5 C 132.56,108.957 132.893,108.624 133.5,108.5C 134.386,109.325 134.719,110.325 134.5,111.5C 134.167,111.5 133.833,111.5 133.5,111.5C 133.672,110.508 133.338,109.842 132.5,109.5 Z M 132.5,109.5 C 132.328,110.492 132.662,111.158 133.5,111.5C 133.833,114.167 134.167,114.167 134.5,111.5C 136.105,114.12 137.438,116.953 138.5,120C 133.903,121.455 129.237,122.122 124.5,122C 125.044,121.283 125.711,120.783 126.5,120.5C 126.56,121.043 126.893,121.376 127.5,121.5C 128.386,120.675 128.719,119.675 128.5,118.5C 129.833,118.167 129.833,117.833 128.5,117.5C 128.328,116.508 128.662,115.842 129.5,115.5C 129.81,116.738 130.31,116.738 131,115.5C 131.692,114.563 131.525,113.897 130.5,113.5C 130.66,111.847 131.326,110.514 132.5,109.5 Z M 58.5,110.5 C 59.9063,110.973 60.573,111.973 60.5,113.5C 59.2875,114.497 59.4542,115.497 61,116.5C 61.3988,116.272 61.5654,115.938 61.5,115.5C 62.3382,115.842 62.6716,116.508 62.5,117.5C 61.1667,117.833 61.1667,118.167 62.5,118.5C 62.5,119.5 62.5,120.5 62.5,121.5C 59.4552,121.492 56.4552,121.159 53.5,120.5C 53.2627,119.209 53.596,118.209 54.5,117.5C 54.2627,116.209 54.596,115.209 55.5,114.5C 55.369,115.239 55.5357,115.906 56,116.5C 57.0086,114.975 57.5086,113.308 57.5,111.5C 58.1667,111.5 58.5,111.167 58.5,110.5 Z M 75.5,118.5 C 75.8333,118.5 76.1667,118.5 76.5,118.5C 77.1667,118.5 77.5,118.833 77.5,119.5C 77.5,120.167 77.5,120.833 77.5,121.5C 76.0937,121.027 75.427,120.027 75.5,118.5 Z M 64.5,120.5 C 65.2891,120.783 65.9558,121.283 66.5,122C 64.9343,122.765 63.6009,122.598 62.5,121.5C 63.4916,121.672 64.1583,121.338 64.5,120.5 Z M 52.5,130.5 C 58.5056,131.223 64.5056,132.056 70.5,133C 72.437,133.122 73.7703,133.955 74.5,135.5C 74.0618,135.435 73.7284,135.601 73.5,136C 74.6364,137.145 75.6364,138.312 76.5,139.5C 76.5,140.167 76.8333,140.5 77.5,140.5C 78.5116,141.872 79.5116,143.205 80.5,144.5C 80.5,145.167 80.8333,145.5 81.5,145.5C 81.5,146.167 81.8333,146.5 82.5,146.5C 83.8333,148.167 85.1667,149.833 86.5,151.5C 85.8333,151.5 85.5,151.833 85.5,152.5C 84.8333,152.5 84.5,152.833 84.5,153.5C 83.8333,153.5 83.5,153.833 83.5,154.5C 81.6503,155.242 80.9836,156.242 81.5,157.5C 81.1583,158.338 80.4916,158.672 79.5,158.5C 78.9222,157.453 78.2555,157.62 77.5,159C 77.7284,159.399 78.0618,159.565 78.5,159.5C 78.0269,160.906 77.0269,161.573 75.5,161.5C 75.1583,162.338 74.4916,162.672 73.5,162.5C 71.4208,164.873 68.7541,166.206 65.5,166.5C 62.1439,168.379 58.4773,168.879 54.5,168C 53.944,167.617 53.6107,167.117 53.5,166.5C 54.547,165.922 54.3803,165.256 53,164.5C 52.6012,164.728 52.4346,165.062 52.5,165.5C 51.6618,165.158 51.3284,164.492 51.5,163.5C 50.0735,161.852 49.2401,159.852 49,157.5C 48.2615,149.125 48.5949,140.792 50,132.5C 50.2492,131.376 50.7492,130.376 51.5,129.5C 52.1067,129.624 52.44,129.957 52.5,130.5 Z M 141.5,138.5 C 142.654,144.987 142.821,151.654 142,158.5C 141.768,159.737 141.268,160.737 140.5,161.5C 140.737,162.791 140.404,163.791 139.5,164.5C 139.631,163.761 139.464,163.094 139,162.5C 138.535,163.931 137.701,165.097 136.5,166C 136.728,166.399 137.062,166.565 137.5,166.5C 133.865,169.065 130.199,169.065 126.5,166.5C 124.447,166.598 122.78,165.931 121.5,164.5C 119.847,164.34 118.514,163.674 117.5,162.5C 115.973,162.573 114.973,161.906 114.5,160.5C 112.973,160.573 111.973,159.906 111.5,158.5C 112.547,157.922 112.38,157.256 111,156.5C 110.601,156.728 110.435,157.062 110.5,157.5C 108.973,157.573 107.973,156.906 107.5,155.5C 108.016,154.242 107.35,153.242 105.5,152.5C 105.5,151.833 105.167,151.5 104.5,151.5C 106.167,149.5 107.833,147.5 109.5,145.5C 110.167,145.5 110.5,145.167 110.5,144.5C 112.969,141.856 115.302,139.023 117.5,136C 117.272,135.601 116.938,135.435 116.5,135.5C 117.23,133.955 118.563,133.122 120.5,133C 126.494,132.056 132.494,131.223 138.5,130.5C 139.302,129.115 139.969,129.282 140.5,131C 141.322,133.434 141.656,135.934 141.5,138.5 Z M 102.5,136.5 C 101.377,135.243 100.711,135.576 100.5,137.5C 99.1667,137.833 99.1667,138.167 100.5,138.5C 100.262,140.404 99.2624,141.738 97.5,142.5C 97.1667,141.167 96.8333,141.167 96.5,142.5C 95.8333,142.167 95.1667,141.833 94.5,141.5C 94.5,140.833 94.1667,140.5 93.5,140.5C 93.5,139.833 93.1667,139.5 92.5,139.5C 92.1667,138.5 91.5,137.833 90.5,137.5C 90.6107,136.883 90.944,136.383 91.5,136C 90.2506,135.26 89.2506,135.427 88.5,136.5C 87.7109,136.217 87.0442,135.717 86.5,135C 92.5,134.333 98.5,134.333 104.5,135C 103.956,135.717 103.289,136.217 102.5,136.5 Z M 76.5,137.5 C 77.9063,137.973 78.573,138.973 78.5,140.5C 78.1667,140.5 77.8333,140.5 77.5,140.5C 76.8333,140.5 76.5,140.167 76.5,139.5C 76.5,138.833 76.5,138.167 76.5,137.5 Z M 91.5,139.5 C 91.8333,139.5 92.1667,139.5 92.5,139.5C 93.1667,139.5 93.5,139.833 93.5,140.5C 94.1667,140.5 94.5,140.833 94.5,141.5C 94.5,142.167 94.5,142.833 94.5,143.5C 92.7376,142.738 91.7376,141.404 91.5,139.5 Z M 80.5,142.5 C 82.2624,143.262 83.2624,144.596 83.5,146.5C 83.1667,146.5 82.8333,146.5 82.5,146.5C 81.8333,146.5 81.5,146.167 81.5,145.5C 80.8333,145.5 80.5,145.167 80.5,144.5C 80.5,143.833 80.5,143.167 80.5,142.5 Z M 110.5,142.5 C 110.5,143.167 110.5,143.833 110.5,144.5C 109.833,144.5 109.5,144.833 109.5,145.5C 109.167,145.5 108.833,145.5 108.5,145.5C 108.427,143.973 109.094,142.973 110.5,142.5 Z M 87.5,150.5 C 88.625,151.348 88.625,152.348 87.5,153.5C 86.5,153.833 85.8333,154.5 85.5,155.5C 84.8333,155.5 84.1667,155.5 83.5,155.5C 83.5,155.167 83.5,154.833 83.5,154.5C 84.1667,154.5 84.5,154.167 84.5,153.5C 85.1667,153.5 85.5,153.167 85.5,152.5C 86.1667,152.5 86.5,152.167 86.5,151.5C 87.1667,151.5 87.5,151.167 87.5,150.5 Z M 103.5,150.5 C 103.5,151.167 103.833,151.5 104.5,151.5C 105.167,151.5 105.5,151.833 105.5,152.5C 105.5,152.833 105.5,153.167 105.5,153.5C 102.949,153.332 102.282,152.332 103.5,150.5 Z"/></g>
<g><path style="opacity:0.031" fill="#64dafb" d="M 68.5,13.5 C 69.8333,14.1667 69.8333,14.1667 68.5,13.5 Z"/></g>
<g><path style="opacity:0.031" fill="#64dafb" d="M 120.5,13.5 C 121.833,14.1667 121.833,14.1667 120.5,13.5 Z"/></g>
<g><path style="opacity:0.031" fill="#64dafb" d="M 141.5,13.5 C 142.833,14.1667 142.833,14.1667 141.5,13.5 Z"/></g>
<g><path style="opacity:0.031" fill="#64dafb" d="M 48.5,14.5 C 48.5,14.8333 48.5,15.1667 48.5,15.5C 47.8299,15.0187 47.8299,14.6853 48.5,14.5 Z"/></g>
<g><path style="opacity:0.031" fill="#64dafb" d="M 72.5,15.5 C 71.8333,14.1667 71.8333,14.1667 72.5,15.5 Z"/></g>
<g><path style="opacity:0.031" fill="#64dafb" d="M 120.5,14.5 C 120.5,14.8333 120.5,15.1667 120.5,15.5C 119.83,15.0187 119.83,14.6853 120.5,14.5 Z"/></g>
<g><path style="opacity:0.031" fill="#64dafb" d="M 45.5,15.5 C 46.8333,16.1667 46.8333,16.1667 45.5,15.5 Z"/></g>
<g><path style="opacity:0.031" fill="#64dafb" d="M 72.5,15.5 C 73.8333,16.1667 73.8333,16.1667 72.5,15.5 Z"/></g>
<g><path style="opacity:0.031" fill="#64dafb" d="M 116.5,15.5 C 117.833,16.1667 117.833,16.1667 116.5,15.5 Z"/></g>
<g><path style="opacity:0.031" fill="#64dafb" d="M 143.5,15.5 C 144.833,16.1667 144.833,16.1667 143.5,15.5 Z"/></g>
<g><path style="opacity:0.031" fill="#64dafb" d="M 45.5,16.5 C 44.8333,17.1667 44.8333,17.1667 45.5,16.5 Z"/></g>
<g><path style="opacity:0.031" fill="#64dafb" d="M 76.5,17.5 C 75.8333,16.1667 75.8333,16.1667 76.5,17.5 Z"/></g>
<g><path style="opacity:0.031" fill="#64dafb" d="M 114.5,16.5 C 115.833,17.1667 115.833,17.1667 114.5,16.5 Z"/></g>
<g><path style="opacity:0.031" fill="#64dafb" d="M 145.5,16.5 C 146.833,17.1667 146.833,17.1667 145.5,16.5 Z"/></g>
<g><path style="opacity:0.031" fill="#64dafb" d="M 44.5,17.5 C 43.8333,18.1667 43.8333,18.1667 44.5,17.5 Z"/></g>
<g><path style="opacity:0.031" fill="#64dafb" d="M 76.5,17.5 C 77.8333,18.1667 77.8333,18.1667 76.5,17.5 Z"/></g>
<g><path style="opacity:0.031" fill="#64dafb" d="M 112.5,17.5 C 113.833,18.1667 113.833,18.1667 112.5,17.5 Z"/></g>
<g><path style="opacity:0.031" fill="#64dafb" d="M 78.5,18.5 C 79.8333,19.1667 79.8333,19.1667 78.5,18.5 Z"/></g>
<g><path style="opacity:0.031" fill="#64dafb" d="M 112.5,18.5 C 112.5,18.8333 112.5,19.1667 112.5,19.5C 111.83,19.0187 111.83,18.6853 112.5,18.5 Z"/></g>
<g><path style="opacity:0.031" fill="#64dafb" d="M 81.5,20.5 C 80.8333,19.1667 80.8333,19.1667 81.5,20.5 Z"/></g>
<g><path style="opacity:0.582" fill="#63dffd" d="M 142.5,16.5 C 142.833,16.5 143.167,16.5 143.5,16.5C 144.5,18.1667 145.833,19.5 147.5,20.5C 147.833,21.8333 148.167,23.1667 148.5,24.5C 148.631,25.2389 148.464,25.9056 148,26.5C 146.802,22.2541 144.302,19.0875 140.5,17C 141.094,16.5357 141.761,16.369 142.5,16.5 Z"/></g>
<g><path style="opacity:0.031" fill="#64dafb" d="M 148.5,20.5 C 147.833,19.1667 147.833,19.1667 148.5,20.5 Z"/></g>
<g><path style="opacity:0.031" fill="#64dafb" d="M 81.5,20.5 C 82.8333,21.1667 82.8333,21.1667 81.5,20.5 Z"/></g>
<g><path style="opacity:0.031" fill="#64dafb" d="M 148.5,20.5 C 149.833,21.1667 149.833,21.1667 148.5,20.5 Z"/></g>
<g><path style="opacity:0.031" fill="#64dafb" d="M 83.5,21.5 C 84.8333,22.1667 84.8333,22.1667 83.5,21.5 Z"/></g>
<g><path style="opacity:0.598" fill="#63e0fd" d="M 47.5,17.5 C 47.9382,17.4346 48.2716,17.6012 48.5,18C 46.0439,20.4075 44.2106,23.2409 43,26.5C 42.7216,25.5842 42.2216,24.9175 41.5,24.5C 42.7805,21.5526 44.7805,19.2193 47.5,17.5 Z"/></g>
<g><path style="opacity:0.031" fill="#64dafb" d="M 149.5,22.5 C 150.833,23.1667 150.833,23.1667 149.5,22.5 Z"/></g>
<g><path style="opacity:0.031" fill="#64dafb" d="M 39.5,23.5 C 40.525,23.8966 40.6917,24.5632 40,25.5C 39.5357,24.9056 39.369,24.2389 39.5,23.5 Z"/></g>
<g><path style="opacity:0.031" fill="#64dafb" d="M 85.5,23.5 C 86.8333,24.1667 86.8333,24.1667 85.5,23.5 Z"/></g>
<g><path style="opacity:0.031" fill="#64dafb" d="M 103.5,23.5 C 104.833,24.1667 104.833,24.1667 103.5,23.5 Z"/></g>
<g><path style="opacity:0.031" fill="#64dafb" d="M 87.5,24.5 C 88.8333,25.1667 88.8333,25.1667 87.5,24.5 Z"/></g>
<g><path style="opacity:0.031" fill="#64dafb" d="M 150.5,26.5 C 150.369,25.7611 150.536,25.0944 151,24.5C 151.692,25.4368 151.525,26.1034 150.5,26.5 Z"/></g>
<g><path style="opacity:0.031" fill="#64dafb" d="M 38.5,26.5 C 39.525,26.8966 39.6917,27.5632 39,28.5C 38.5357,27.9056 38.369,27.2389 38.5,26.5 Z"/></g>
<g><path style="opacity:0.031" fill="#64dafb" d="M 90.5,27.5 C 91.8333,28.1667 91.8333,28.1667 90.5,27.5 Z"/></g>
<g><path style="opacity:0.031" fill="#64dafb" d="M 98.5,27.5 C 99.8333,28.1667 99.8333,28.1667 98.5,27.5 Z"/></g>
<g><path style="opacity:0.031" fill="#64dafb" d="M 152.5,29.5 C 151.475,29.1034 151.308,28.4368 152,27.5C 152.464,28.0944 152.631,28.7611 152.5,29.5 Z"/></g>
<g><path style="opacity:0.031" fill="#64dafb" d="M 92.5,28.5 C 93.8333,29.1667 93.8333,29.1667 92.5,28.5 Z"/></g>
<g><path style="opacity:0.031" fill="#64dafb" d="M 37.5,29.5 C 38.5983,30.6009 38.765,31.9343 38,33.5C 37.51,32.2068 37.3433,30.8734 37.5,29.5 Z"/></g>
<g><path style="opacity:0.031" fill="#64dafb" d="M 152.5,29.5 C 153.613,30.9464 153.78,32.6131 153,34.5C 152.506,32.8659 152.34,31.1992 152.5,29.5 Z"/></g>
<g><path style="opacity:0.031" fill="#64dafb" d="M 36.5,35.5 C 37.6484,39.9811 37.8151,44.6478 37,49.5C 36.5008,44.8452 36.3342,40.1785 36.5,35.5 Z"/></g>
<g><path style="opacity:0.031" fill="#64dafb" d="M 153.5,36.5 C 154.645,40.3112 154.812,44.3112 154,48.5C 153.501,44.5138 153.334,40.5138 153.5,36.5 Z"/></g>
<g><path style="opacity:0.031" fill="#64dafb" d="M 152.5,50.5 C 153.622,52.2884 153.789,54.2884 153,56.5C 152.505,54.5273 152.338,52.5273 152.5,50.5 Z"/></g>
<g><path style="opacity:0.031" fill="#64dafb" d="M 37.5,52.5 C 38.6129,53.9464 38.7796,55.6131 38,57.5C 37.5065,55.8659 37.3398,54.1992 37.5,52.5 Z"/></g>
<g><path style="opacity:0.031" fill="#64dafb" d="M 151.5,57.5 C 152.598,58.6009 152.765,59.9343 152,61.5C 151.51,60.2068 151.343,58.8734 151.5,57.5 Z"/></g>
<g><path style="opacity:0.031" fill="#64dafb" d="M 38.5,58.5 C 39.5983,59.6009 39.765,60.9343 39,62.5C 38.51,61.2068 38.3433,59.8734 38.5,58.5 Z"/></g>
<g><path style="opacity:0.031" fill="#64dafb" d="M 150.5,62.5 C 151.833,63.1667 151.833,63.1667 150.5,62.5 Z"/></g>
<g><path style="opacity:0.031" fill="#64dafb" d="M 36.5,63.5 C 37.8333,64.1667 37.8333,64.1667 36.5,63.5 Z"/></g>
<g><path style="opacity:0.031" fill="#64dafb" d="M 152.5,63.5 C 153.833,64.1667 153.833,64.1667 152.5,63.5 Z"/></g>
<g><path style="opacity:0.031" fill="#64dafb" d="M 33.5,64.5 C 34.8333,65.1667 34.8333,65.1667 33.5,64.5 Z"/></g>
<g><path style="opacity:0.031" fill="#64dafb" d="M 36.5,64.5 C 36.5,64.8333 36.5,65.1667 36.5,65.5C 35.8299,65.0187 35.8299,64.6853 36.5,64.5 Z"/></g>
<g><path style="opacity:0.031" fill="#64dafb" d="M 157.5,65.5 C 156.833,64.1667 156.833,64.1667 157.5,65.5 Z"/></g>
<g><path style="opacity:0.031" fill="#64dafb" d="M 31.5,65.5 C 32.8333,66.1667 32.8333,66.1667 31.5,65.5 Z"/></g>
<g><path style="opacity:0.031" fill="#64dafb" d="M 157.5,65.5 C 158.833,66.1667 158.833,66.1667 157.5,65.5 Z"/></g>
<g><path style="opacity:0.031" fill="#64dafb" d="M 31.5,66.5 C 31.5,66.8333 31.5,67.1667 31.5,67.5C 30.8299,67.0187 30.8299,66.6853 31.5,66.5 Z"/></g>
<g><path style="opacity:0.031" fill="#64dafb" d="M 160.5,66.5 C 161.833,67.1667 161.833,67.1667 160.5,66.5 Z"/></g>
<g><path style="opacity:0.031" fill="#64dafb" d="M 26.5,67.5 C 27.8333,68.1667 27.8333,68.1667 26.5,67.5 Z"/></g>
<g><path style="opacity:0.031" fill="#64dafb" d="M 162.5,67.5 C 163.833,68.1667 163.833,68.1667 162.5,67.5 Z"/></g>
<g><path style="opacity:0.031" fill="#64dafb" d="M 26.5,68.5 C 26.5,68.8333 26.5,69.1667 26.5,69.5C 25.8299,69.0187 25.8299,68.6853 26.5,68.5 Z"/></g>
<g><path style="opacity:0.031" fill="#64dafb" d="M 166.5,69.5 C 165.833,68.1667 165.833,68.1667 166.5,69.5 Z"/></g>
<g><path style="opacity:0.031" fill="#64dafb" d="M 24.5,70.5 C 23.8333,69.1667 23.8333,69.1667 24.5,70.5 Z"/></g>
<g><path style="opacity:0.031" fill="#64dafb" d="M 166.5,69.5 C 167.833,70.1667 167.833,70.1667 166.5,69.5 Z"/></g>
<g><path style="opacity:0.031" fill="#64dafb" d="M 22.5,71.5 C 21.8333,70.1667 21.8333,70.1667 22.5,71.5 Z"/></g>
<g><path style="opacity:0.031" fill="#64dafb" d="M 170.5,71.5 C 169.833,70.1667 169.833,70.1667 170.5,71.5 Z"/></g>
<g><path style="opacity:0.031" fill="#64dafb" d="M 19.5,71.5 C 20.8333,72.1667 20.8333,72.1667 19.5,71.5 Z"/></g>
<g><path style="opacity:0.031" fill="#64dafb" d="M 55.5,74.5 C 55.1667,74.5 54.8333,74.5 54.5,74.5C 54.5,73.5 54.5,72.5 54.5,71.5C 55.552,71.3505 56.552,71.5172 57.5,72C 56.244,72.4169 55.5774,73.2502 55.5,74.5 Z"/></g>
<g><path style="opacity:0.031" fill="#64dafb" d="M 134.5,72.5 C 135.077,71.2267 135.743,71.2267 136.5,72.5C 136.03,73.463 135.363,73.463 134.5,72.5 Z"/></g>
<g><path style="opacity:0.031" fill="#64dafb" d="M 170.5,71.5 C 171.833,72.1667 171.833,72.1667 170.5,71.5 Z"/></g>
<g><path style="opacity:0.031" fill="#64dafb" d="M 19.5,72.5 C 19.5,72.8333 19.5,73.1667 19.5,73.5C 18.8299,73.0187 18.8299,72.6853 19.5,72.5 Z"/></g>
<g><path style="opacity:0.031" fill="#64dafb" d="M 173.5,73.5 C 172.833,72.1667 172.833,72.1667 173.5,73.5 Z"/></g>
<g><path style="opacity:0.031" fill="#64dafb" d="M 173.5,73.5 C 174.833,74.1667 174.833,74.1667 173.5,73.5 Z"/></g>
<g><path style="opacity:0.031" fill="#64dafb" d="M 175.5,74.5 C 176.833,75.1667 176.833,75.1667 175.5,74.5 Z"/></g>
<g><path style="opacity:0.031" fill="#64dafb" d="M 178.5,77.5 C 179.833,78.1667 179.833,78.1667 178.5,77.5 Z"/></g>
<g><path style="opacity:0.031" fill="#64dafb" d="M 181.5,79.5 C 180.833,78.1667 180.833,78.1667 181.5,79.5 Z"/></g>
<g><path style="opacity:0.031" fill="#64dafb" d="M 8.5,79.5 C 9.83333,80.1667 9.83333,80.1667 8.5,79.5 Z"/></g>
<g><path style="opacity:0.031" fill="#64dafb" d="M 181.5,79.5 C 182.833,80.1667 182.833,80.1667 181.5,79.5 Z"/></g>
<g><path style="opacity:0.999" fill="#61dafb" d="M 101.5,78.5 C 102.514,79.6737 103.847,80.3404 105.5,80.5C 105.5,81.1667 105.833,81.5 106.5,81.5C 107.167,82.8333 108.167,83.8333 109.5,84.5C 109.5,85.1667 109.833,85.5 110.5,85.5C 113.455,90.8961 114.122,96.5627 112.5,102.5C 111.662,102.842 111.328,103.508 111.5,104.5C 111.167,104.5 110.833,104.5 110.5,104.5C 110.649,103.448 110.483,102.448 110,101.5C 108.311,104.667 106.478,107.667 104.5,110.5C 104.5,110.833 104.5,111.167 104.5,111.5C 102.597,111.796 100.93,112.463 99.5,113.5C 96.8333,113.5 94.1667,113.5 91.5,113.5C 90.791,112.596 89.791,112.263 88.5,112.5C 88.1583,111.662 87.4916,111.328 86.5,111.5C 86.5,110.833 86.1667,110.5 85.5,110.5C 85.1583,109.662 84.4916,109.328 83.5,109.5C 82.396,107.611 81.0627,105.945 79.5,104.5C 79.6716,103.508 79.3382,102.842 78.5,102.5C 76.8785,96.5627 77.5452,90.8961 80.5,85.5C 82.1667,84.5 83.5,83.1667 84.5,81.5C 85.1667,81.5 85.5,81.1667 85.5,80.5C 90.618,77.8839 95.9513,77.2172 101.5,78.5 Z"/></g>
<g><path style="opacity:1" fill="#63e0fd" d="M 11.5,80.5 C 11.9382,80.4346 12.2716,80.6012 12.5,81C 10.3002,83.2336 8.46688,85.7336 7,88.5C 6.53566,87.9056 6.36899,87.2389 6.5,86.5C 7.41938,83.9108 9.08605,81.9108 11.5,80.5 Z"/></g>
<g><path style="opacity:0.031" fill="#64dafb" d="M 185.5,84.5 C 184.833,83.1667 184.833,83.1667 185.5,84.5 Z"/></g>
<g><path style="opacity:0.031" fill="#64dafb" d="M 4.5,84.5 C 5.83333,85.1667 5.83333,85.1667 4.5,84.5 Z"/></g>
<g><path style="opacity:0.031" fill="#64dafb" d="M 185.5,84.5 C 186.833,85.1667 186.833,85.1667 185.5,84.5 Z"/></g>
<g><path style="opacity:0.031" fill="#64dafb" d="M 4.5,87.5 C 3.83333,86.1667 3.83333,86.1667 4.5,87.5 Z"/></g>
<g><path style="opacity:0.031" fill="#64dafb" d="M 188.5,89.5 C 188.167,89.5 187.833,89.5 187.5,89.5C 187.833,86.8333 188.167,86.8333 188.5,89.5 Z"/></g>
<g><path style="opacity:0.031" fill="#64dafb" d="M 3.5,89.5 C 2.83333,88.1667 2.83333,88.1667 3.5,89.5 Z"/></g>
<g><path style="opacity:0.031" fill="#64dafb" d="M 2.5,89.5 C 2.64945,90.552 2.48278,91.552 2,92.5C 1.25988,91.2506 1.42654,90.2506 2.5,89.5 Z"/></g>
<g><path style="opacity:0.031" fill="#64dafb" d="M 188.5,89.5 C 189.573,90.2506 189.74,91.2506 189,92.5C 188.517,91.552 188.351,90.552 188.5,89.5 Z"/></g>
<g><path style="opacity:0.031" fill="#64dafb" d="M 189.5,93.5 C 190.598,94.6009 190.765,95.9343 190,97.5C 189.51,96.2068 189.343,94.8734 189.5,93.5 Z"/></g>
<g><path style="opacity:0.031" fill="#64dafb" d="M 0.5,94.5 C 1.57346,95.2506 1.74012,96.2506 1,97.5C 0.517215,96.552 0.350549,95.552 0.5,94.5 Z"/></g>
<g><path style="opacity:1" fill="#64e2fe" d="M 186.5,89.5 C 186.488,104.07 185.821,104.07 184.5,89.5C 184.97,88.537 185.637,88.537 186.5,89.5 Z"/></g>
<g><path style="opacity:0.031" fill="#64dafb" d="M 1.5,98.5 C 2.57346,99.2506 2.74012,100.251 2,101.5C 1.51722,100.552 1.35055,99.552 1.5,98.5 Z"/></g>
<g><path style="opacity:0.031" fill="#64dafb" d="M 188.5,101.5 C 188.351,100.448 188.517,99.448 189,98.5C 189.74,99.7494 189.573,100.749 188.5,101.5 Z"/></g>
<g><path style="opacity:0.031" fill="#64dafb" d="M 187.5,101.5 C 187.833,101.5 188.167,101.5 188.5,101.5C 188.672,102.492 188.338,103.158 187.5,103.5C 187.5,102.833 187.5,102.167 187.5,101.5 Z"/></g>
<g><path style="opacity:0.031" fill="#64dafb" d="M 186.5,103.5 C 186.833,103.5 187.167,103.5 187.5,103.5C 187.672,104.492 187.338,105.158 186.5,105.5C 186.5,104.833 186.5,104.167 186.5,103.5 Z"/></g>
<g><path style="opacity:0.031" fill="#64dafb" d="M 185.5,105.5 C 185.833,105.5 186.167,105.5 186.5,105.5C 186.315,106.17 185.981,106.17 185.5,105.5 Z"/></g>
<g><path style="opacity:0.031" fill="#64dafb" d="M 6.5,106.5 C 5.83333,107.167 5.83333,107.167 6.5,106.5 Z"/></g>
<g><path style="opacity:0.753" fill="#63e0fc" d="M 110.5,104.5 C 110.5,104.833 110.5,105.167 110.5,105.5C 109.094,105.973 108.427,106.973 108.5,108.5C 106.938,108.733 105.605,109.4 104.5,110.5C 106.478,107.667 108.311,104.667 110,101.5C 110.483,102.448 110.649,103.448 110.5,104.5 Z"/></g>
<g><path style="opacity:0.031" fill="#64dafb" d="M 184.5,106.5 C 184.833,106.5 185.167,106.5 185.5,106.5C 185.315,107.17 184.981,107.17 184.5,106.5 Z"/></g>
<g><path style="opacity:0.031" fill="#64dafb" d="M 7.5,109.5 C 6.83333,108.167 6.83333,108.167 7.5,109.5 Z"/></g>
<g><path style="opacity:0.031" fill="#64dafb" d="M 183.5,108.5 C 184.833,109.167 184.833,109.167 183.5,108.5 Z"/></g>
<g><path style="opacity:0.031" fill="#64dafb" d="M 7.5,109.5 C 8.16667,109.5 8.5,109.833 8.5,110.5C 8.16667,110.167 7.83333,109.833 7.5,109.5 Z"/></g>
<g><path style="opacity:0.031" fill="#64dafb" d="M 182.5,109.5 C 182.833,109.5 183.167,109.5 183.5,109.5C 183.315,110.17 182.981,110.17 182.5,109.5 Z"/></g>
<g><path style="opacity:0.031" fill="#64dafb" d="M 8.5,110.5 C 8.83333,110.5 9.16667,110.5 9.5,110.5C 9.5,110.833 9.5,111.167 9.5,111.5C 9.16667,111.167 8.83333,110.833 8.5,110.5 Z"/></g>
<g><path style="opacity:0.031" fill="#64dafb" d="M 181.5,110.5 C 181.833,110.5 182.167,110.5 182.5,110.5C 182.315,111.17 181.981,111.17 181.5,110.5 Z"/></g>
<g><path style="opacity:0.031" fill="#64dafb" d="M 9.5,111.5 C 10.1667,111.5 10.5,111.833 10.5,112.5C 10.1667,112.167 9.83333,111.833 9.5,111.5 Z"/></g>
<g><path style="opacity:0.031" fill="#64dafb" d="M 180.5,111.5 C 180.833,111.5 181.167,111.5 181.5,111.5C 181.315,112.17 180.981,112.17 180.5,111.5 Z"/></g>
<g><path style="opacity:0.031" fill="#64dafb" d="M 10.5,112.5 C 11.1667,112.5 11.5,112.833 11.5,113.5C 11.1667,113.167 10.8333,112.833 10.5,112.5 Z"/></g>
<g><path style="opacity:0.031" fill="#64dafb" d="M 180.5,112.5 C 179.833,113.167 179.833,113.167 180.5,112.5 Z"/></g>
<g><path style="opacity:0.031" fill="#64dafb" d="M 11.5,113.5 C 12.8333,114.167 12.8333,114.167 11.5,113.5 Z"/></g>
<g><path style="opacity:0.031" fill="#64dafb" d="M 177.5,113.5 C 178.833,114.167 178.833,114.167 177.5,113.5 Z"/></g>
<g><path style="opacity:0.031" fill="#64dafb" d="M 176.5,114.5 C 176.833,114.5 177.167,114.5 177.5,114.5C 177.315,115.17 176.981,115.17 176.5,114.5 Z"/></g>
<g><path style="opacity:0.031" fill="#64dafb" d="M 15.5,115.5 C 14.8333,116.167 14.8333,116.167 15.5,115.5 Z"/></g>
<g><path style="opacity:0.031" fill="#64dafb" d="M 175.5,115.5 C 175.833,115.5 176.167,115.5 176.5,115.5C 176.315,116.17 175.981,116.17 175.5,115.5 Z"/></g>
<g><path style="opacity:0.031" fill="#64dafb" d="M 175.5,116.5 C 174.833,117.167 174.833,117.167 175.5,116.5 Z"/></g>
<g><path style="opacity:0.031" fill="#64dafb" d="M 18.5,117.5 C 17.8333,118.167 17.8333,118.167 18.5,117.5 Z"/></g>
<g><path style="opacity:0.031" fill="#64dafb" d="M 54.5,117.5 C 55.2891,117.783 55.9558,118.283 56.5,119C 55.184,119.528 54.5173,119.028 54.5,117.5 Z"/></g>
<g><path style="opacity:0.031" fill="#64dafb" d="M 135.5,117.5 C 136.773,118.077 136.773,118.743 135.5,119.5C 134.537,119.03 134.537,118.363 135.5,117.5 Z"/></g>
<g><path style="opacity:0.031" fill="#64dafb" d="M 172.5,117.5 C 173.833,118.167 173.833,118.167 172.5,117.5 Z"/></g>
<g><path style="opacity:0.031" fill="#64dafb" d="M 20.5,118.5 C 20.5,118.833 20.5,119.167 20.5,119.5C 19.8299,119.019 19.8299,118.685 20.5,118.5 Z"/></g>
<g><path style="opacity:0.031" fill="#64dafb" d="M 62.5,118.5 C 62.8333,118.5 63.1667,118.5 63.5,118.5C 63.3284,119.492 63.6618,120.158 64.5,120.5C 64.1583,121.338 63.4916,121.672 62.5,121.5C 62.5,120.5 62.5,119.5 62.5,118.5 Z"/></g>
<g><path style="opacity:0.031" fill="#64dafb" d="M 127.5,118.5 C 127.833,118.5 128.167,118.5 128.5,118.5C 128.719,119.675 128.386,120.675 127.5,121.5C 126.893,121.376 126.56,121.043 126.5,120.5C 127.338,120.158 127.672,119.492 127.5,118.5 Z"/></g>
<g><path style="opacity:0.031" fill="#64dafb" d="M 170.5,118.5 C 171.833,119.167 171.833,119.167 170.5,118.5 Z"/></g>
<g><path style="opacity:0.031" fill="#64dafb" d="M 20.5,119.5 C 21.8333,120.167 21.8333,120.167 20.5,119.5 Z"/></g>
<g><path style="opacity:0.031" fill="#64dafb" d="M 168.5,119.5 C 169.833,120.167 169.833,120.167 168.5,119.5 Z"/></g>
<g><path style="opacity:0.031" fill="#64dafb" d="M 24.5,120.5 C 24.5,120.833 24.5,121.167 24.5,121.5C 23.8299,121.019 23.8299,120.685 24.5,120.5 Z"/></g>
<g><path style="opacity:0.031" fill="#64dafb" d="M 168.5,120.5 C 167.833,121.167 167.833,121.167 168.5,120.5 Z"/></g>
<g><path style="opacity:0.031" fill="#64dafb" d="M 24.5,121.5 C 25.8333,122.167 25.8333,122.167 24.5,121.5 Z"/></g>
<g><path style="opacity:0.031" fill="#64dafb" d="M 165.5,121.5 C 166.833,122.167 166.833,122.167 165.5,121.5 Z"/></g>
<g><path style="opacity:0.031" fill="#64dafb" d="M 28.5,122.5 C 28.5,122.833 28.5,123.167 28.5,123.5C 27.8299,123.019 27.8299,122.685 28.5,122.5 Z"/></g>
<g><path style="opacity:0.031" fill="#64dafb" d="M 163.5,122.5 C 164.833,123.167 164.833,123.167 163.5,122.5 Z"/></g>
<g><path style="opacity:0.031" fill="#64dafb" d="M 28.5,123.5 C 29.8333,124.167 29.8333,124.167 28.5,123.5 Z"/></g>
<g><path style="opacity:0.031" fill="#64dafb" d="M 160.5,123.5 C 161.833,124.167 161.833,124.167 160.5,123.5 Z"/></g>
<g><path style="opacity:0.031" fill="#64dafb" d="M 31.5,124.5 C 32.8333,125.167 32.8333,125.167 31.5,124.5 Z"/></g>
<g><path style="opacity:0.031" fill="#64dafb" d="M 160.5,124.5 C 159.833,125.167 159.833,125.167 160.5,124.5 Z"/></g>
<g><path style="opacity:0.031" fill="#64dafb" d="M 33.5,125.5 C 34.8333,126.167 34.8333,126.167 33.5,125.5 Z"/></g>
<g><path style="opacity:0.031" fill="#64dafb" d="M 155.5,125.5 C 156.833,126.167 156.833,126.167 155.5,125.5 Z"/></g>
<g><path style="opacity:0.031" fill="#64dafb" d="M 157.5,125.5 C 158.833,126.167 158.833,126.167 157.5,125.5 Z"/></g>
<g><path style="opacity:0.031" fill="#64dafb" d="M 35.5,126.5 C 36.8333,127.167 36.8333,127.167 35.5,126.5 Z"/></g>
<g><path style="opacity:0.031" fill="#64dafb" d="M 38.5,126.5 C 37.8333,127.167 37.8333,127.167 38.5,126.5 Z"/></g>
<g><path style="opacity:0.031" fill="#64dafb" d="M 152.5,126.5 C 153.833,127.167 153.833,127.167 152.5,126.5 Z"/></g>
<g><path style="opacity:0.031" fill="#64dafb" d="M 155.5,126.5 C 154.833,127.167 154.833,127.167 155.5,126.5 Z"/></g>
<g><path style="opacity:0.031" fill="#64dafb" d="M 39.5,127.5 C 40.8333,128.167 40.8333,128.167 39.5,127.5 Z"/></g>
<g><path style="opacity:0.031" fill="#64dafb" d="M 38.5,129.5 C 39.5983,130.601 39.765,131.934 39,133.5C 38.51,132.207 38.3433,130.873 38.5,129.5 Z"/></g>
<g><path style="opacity:0.031" fill="#64dafb" d="M 152.5,132.5 C 153.622,134.288 153.789,136.288 153,138.5C 152.505,136.527 152.338,134.527 152.5,132.5 Z"/></g>
<g><path style="opacity:0.031" fill="#64dafb" d="M 37.5,134.5 C 38.6225,136.288 38.7891,138.288 38,140.5C 37.5045,138.527 37.3379,136.527 37.5,134.5 Z"/></g>
<g><path style="opacity:0.031" fill="#64dafb" d="M 88.5,136.5 C 89.2506,135.427 90.2506,135.26 91.5,136C 90.944,136.383 90.6107,136.883 90.5,137.5C 90.1667,137.5 89.8333,137.5 89.5,137.5C 89.5,136.833 89.1667,136.5 88.5,136.5 Z"/></g>
<g><path style="opacity:0.031" fill="#64dafb" d="M 102.5,136.5 C 101.833,136.5 101.5,136.833 101.5,137.5C 101.167,137.5 100.833,137.5 100.5,137.5C 100.711,135.576 101.377,135.243 102.5,136.5 Z"/></g>
<g><path style="opacity:1" fill="#64e3fe" d="M 47.5,132.5 C 48.1386,133.097 48.472,133.93 48.5,135C 47.8773,138.481 47.3773,141.981 47,145.5C 46.4657,141.141 46.6324,136.808 47.5,132.5 Z"/></g>
<g><path style="opacity:0.031" fill="#64dafb" d="M 153.5,140.5 C 154.651,145.65 154.817,150.984 154,156.5C 153.501,151.177 153.334,145.844 153.5,140.5 Z"/></g>
<g><path style="opacity:0.031" fill="#64dafb" d="M 94.5,141.5 C 95.1667,141.833 95.8333,142.167 96.5,142.5C 96.5,142.833 96.5,143.167 96.5,143.5C 95.8333,143.5 95.1667,143.5 94.5,143.5C 94.5,142.833 94.5,142.167 94.5,141.5 Z"/></g>
<g><path style="opacity:0.031" fill="#64dafb" d="M 36.5,143.5 C 37.6433,146.976 37.8099,150.642 37,154.5C 36.5014,150.848 36.3347,147.182 36.5,143.5 Z"/></g>
<g><path style="opacity:1" fill="#64e4fe" d="M 87.5,153.5 C 87.9382,153.435 88.2716,153.601 88.5,154C 87.6667,154.833 86.8333,155.667 86,156.5C 85.6012,156.272 85.4346,155.938 85.5,155.5C 85.8333,154.5 86.5,153.833 87.5,153.5 Z"/></g>
<g><path style="opacity:0.031" fill="#64dafb" d="M 37.5,156.5 C 38.6129,157.946 38.7796,159.613 38,161.5C 37.5065,159.866 37.3398,158.199 37.5,156.5 Z"/></g>
<g><path style="opacity:0.031" fill="#64dafb" d="M 152.5,162.5 C 152.343,161.127 152.51,159.793 153,158.5C 153.765,160.066 153.598,161.399 152.5,162.5 Z"/></g>
<g><path style="opacity:0.031" fill="#64dafb" d="M 93.5,160.5 C 94.8333,161.167 94.8333,161.167 93.5,160.5 Z"/></g>
<g><path style="opacity:0.031" fill="#64dafb" d="M 92.5,161.5 C 92.8333,161.5 93.1667,161.5 93.5,161.5C 93.3147,162.17 92.9813,162.17 92.5,161.5 Z"/></g>
<g><path style="opacity:0.031" fill="#64dafb" d="M 98.5,161.5 C 98.5,161.833 98.5,162.167 98.5,162.5C 97.8299,162.019 97.8299,161.685 98.5,161.5 Z"/></g>
<g><path style="opacity:0.031" fill="#64dafb" d="M 91.5,162.5 C 91.8333,162.5 92.1667,162.5 92.5,162.5C 92.3147,163.17 91.9813,163.17 91.5,162.5 Z"/></g>
<g><path style="opacity:0.031" fill="#64dafb" d="M 98.5,162.5 C 99.8333,163.167 99.8333,163.167 98.5,162.5 Z"/></g>
<g><path style="opacity:0.031" fill="#64dafb" d="M 151.5,162.5 C 151.833,162.5 152.167,162.5 152.5,162.5C 152.167,165.167 151.833,165.167 151.5,162.5 Z"/></g>
<g><path style="opacity:0.031" fill="#64dafb" d="M 90.5,163.5 C 90.8333,163.5 91.1667,163.5 91.5,163.5C 91.3147,164.17 90.9813,164.17 90.5,163.5 Z"/></g>
<g><path style="opacity:0.031" fill="#64dafb" d="M 40.5,164.5 C 40.631,165.239 40.4643,165.906 40,166.5C 39.3083,165.563 39.475,164.897 40.5,164.5 Z"/></g>
<g><path style="opacity:0.031" fill="#64dafb" d="M 90.5,164.5 C 89.8333,165.167 89.8333,165.167 90.5,164.5 Z"/></g>
<g><path style="opacity:0.031" fill="#64dafb" d="M 87.5,165.5 C 88.8333,166.167 88.8333,166.167 87.5,165.5 Z"/></g>
<g><path style="opacity:0.031" fill="#64dafb" d="M 103.5,165.5 C 103.5,165.833 103.5,166.167 103.5,166.5C 102.83,166.019 102.83,165.685 103.5,165.5 Z"/></g>
<g><path style="opacity:0.031" fill="#64dafb" d="M 150.5,165.5 C 151.833,166.167 151.833,166.833 150.5,167.5C 150.5,166.833 150.5,166.167 150.5,165.5 Z"/></g>
<g><path style="opacity:0.031" fill="#64dafb" d="M 86.5,166.5 C 86.8333,166.5 87.1667,166.5 87.5,166.5C 87.3147,167.17 86.9813,167.17 86.5,166.5 Z"/></g>
<g><path style="opacity:0.031" fill="#64dafb" d="M 103.5,166.5 C 104.833,167.167 104.833,167.167 103.5,166.5 Z"/></g>
<g><path style="opacity:0.031" fill="#64dafb" d="M 86.5,167.5 C 85.8333,168.167 85.8333,168.167 86.5,167.5 Z"/></g>
<g><path style="opacity:0.031" fill="#64dafb" d="M 149.5,167.5 C 149.833,167.5 150.167,167.5 150.5,167.5C 150.672,168.492 150.338,169.158 149.5,169.5C 149.5,168.833 149.5,168.167 149.5,167.5 Z"/></g>
<g><path style="opacity:0.031" fill="#64dafb" d="M 83.5,168.5 C 84.8333,169.167 84.8333,169.167 83.5,168.5 Z"/></g>
<g><path style="opacity:0.031" fill="#64dafb" d="M 107.5,168.5 C 107.5,168.833 107.5,169.167 107.5,169.5C 106.83,169.019 106.83,168.685 107.5,168.5 Z"/></g>
<g><path style="opacity:0.031" fill="#64dafb" d="M 82.5,169.5 C 82.8333,169.5 83.1667,169.5 83.5,169.5C 83.3147,170.17 82.9813,170.17 82.5,169.5 Z"/></g>
<g><path style="opacity:0.031" fill="#64dafb" d="M 107.5,169.5 C 108.833,170.167 108.833,170.167 107.5,169.5 Z"/></g>
<g><path style="opacity:0.031" fill="#64dafb" d="M 148.5,169.5 C 148.833,169.5 149.167,169.5 149.5,169.5C 149.315,170.17 148.981,170.17 148.5,169.5 Z"/></g>
<g><path style="opacity:0.031" fill="#64dafb" d="M 43.5,170.5 C 42.8333,171.167 42.8333,171.167 43.5,170.5 Z"/></g>
<g><path style="opacity:0.031" fill="#64dafb" d="M 82.5,170.5 C 81.8333,171.167 81.8333,171.167 82.5,170.5 Z"/></g>
<g><path style="opacity:0.031" fill="#64dafb" d="M 110.5,170.5 C 109.833,171.167 109.833,171.167 110.5,170.5 Z"/></g>
<g><path style="opacity:0.031" fill="#64dafb" d="M 79.5,171.5 C 80.8333,172.167 80.8333,172.167 79.5,171.5 Z"/></g>
<g><path style="opacity:0.031" fill="#64dafb" d="M 112.5,171.5 C 111.833,172.167 111.833,172.167 112.5,171.5 Z"/></g>
<g><path style="opacity:0.031" fill="#64dafb" d="M 147.5,171.5 C 148.833,172.167 148.833,172.167 147.5,171.5 Z"/></g>
<g><path style="opacity:0.031" fill="#64dafb" d="M 43.5,172.5 C 44.8333,173.167 44.8333,173.167 43.5,172.5 Z"/></g>
<g><path style="opacity:0.031" fill="#64dafb" d="M 77.5,172.5 C 78.8333,173.167 78.8333,173.167 77.5,172.5 Z"/></g>
<g><path style="opacity:0.031" fill="#64dafb" d="M 114.5,172.5 C 114.5,172.833 114.5,173.167 114.5,173.5C 113.83,173.019 113.83,172.685 114.5,172.5 Z"/></g>
<g><path style="opacity:0.031" fill="#64dafb" d="M 146.5,172.5 C 146.833,172.5 147.167,172.5 147.5,172.5C 147.315,173.17 146.981,173.17 146.5,172.5 Z"/></g>
<g><path style="opacity:0.031" fill="#64dafb" d="M 75.5,173.5 C 76.8333,174.167 76.8333,174.167 75.5,173.5 Z"/></g>
<g><path style="opacity:0.031" fill="#64dafb" d="M 114.5,173.5 C 115.833,174.167 115.833,174.167 114.5,173.5 Z"/></g>
<g><path style="opacity:0.031" fill="#64dafb" d="M 145.5,173.5 C 145.833,173.5 146.167,173.5 146.5,173.5C 146.315,174.17 145.981,174.17 145.5,173.5 Z"/></g>
<g><path style="opacity:0.031" fill="#64dafb" d="M 46.5,174.5 C 46.5,174.833 46.5,175.167 46.5,175.5C 45.8299,175.019 45.8299,174.685 46.5,174.5 Z"/></g>
<g><path style="opacity:0.031" fill="#64dafb" d="M 75.5,174.5 C 74.8333,175.167 74.8333,175.167 75.5,174.5 Z"/></g>
<g><path style="opacity:0.031" fill="#64dafb" d="M 116.5,174.5 C 117.833,175.167 117.833,175.167 116.5,174.5 Z"/></g>
<g><path style="opacity:0.031" fill="#64dafb" d="M 144.5,174.5 C 144.833,174.5 145.167,174.5 145.5,174.5C 145.315,175.17 144.981,175.17 144.5,174.5 Z"/></g>
<g><path style="opacity:0.031" fill="#64dafb" d="M 46.5,175.5 C 47.8333,176.167 47.8333,176.167 46.5,175.5 Z"/></g>
<g><path style="opacity:0.031" fill="#64dafb" d="M 71.5,175.5 C 72.8333,176.167 72.8333,176.167 71.5,175.5 Z"/></g>
<g><path style="opacity:0.031" fill="#64dafb" d="M 118.5,175.5 C 119.833,176.167 119.833,176.167 118.5,175.5 Z"/></g>
<g><path style="opacity:0.031" fill="#64dafb" d="M 144.5,175.5 C 143.833,176.167 143.833,176.167 144.5,175.5 Z"/></g>
<g><path style="opacity:0.031" fill="#64dafb" d="M 49.5,176.5 C 49.5,176.833 49.5,177.167 49.5,177.5C 48.8299,177.019 48.8299,176.685 49.5,176.5 Z"/></g>
<g><path style="opacity:0.031" fill="#64dafb" d="M 71.5,176.5 C 70.8333,177.167 70.8333,177.167 71.5,176.5 Z"/></g>
<g><path style="opacity:0.031" fill="#64dafb" d="M 122.5,176.5 C 121.833,177.167 121.833,177.167 122.5,176.5 Z"/></g>
<g><path style="opacity:0.031" fill="#64dafb" d="M 143.5,176.5 C 142.833,177.167 142.833,177.167 143.5,176.5 Z"/></g>
<g><path style="opacity:0.031" fill="#64dafb" d="M 49.5,177.5 C 50.8333,178.167 50.8333,178.167 49.5,177.5 Z"/></g>
<g><path style="opacity:0.031" fill="#64dafb" d="M 66.5,177.5 C 67.8333,178.167 67.8333,178.167 66.5,177.5 Z"/></g>
<g><path style="opacity:0.031" fill="#64dafb" d="M 123.5,177.5 C 124.833,178.167 124.833,178.167 123.5,177.5 Z"/></g>
<g><path style="opacity:0.031" fill="#64dafb" d="M 139.5,177.5 C 140.833,178.167 140.833,178.167 139.5,177.5 Z"/></g>
<g><path style="opacity:0.031" fill="#64dafb" d="M 52.5,178.5 C 53.8333,179.167 53.8333,179.167 52.5,178.5 Z"/></g>
<g><path style="opacity:0.031" fill="#64dafb" d="M 55.5,178.5 C 55.5,178.833 55.5,179.167 55.5,179.5C 54.8299,179.019 54.8299,178.685 55.5,178.5 Z"/></g>
<g><path style="opacity:0.031" fill="#64dafb" d="M 62.5,178.5 C 63.8333,179.167 63.8333,179.167 62.5,178.5 Z"/></g>
<g><path style="opacity:0.031" fill="#64dafb" d="M 64.5,178.5 C 65.8333,179.167 65.8333,179.167 64.5,178.5 Z"/></g>
<g><path style="opacity:0.031" fill="#64dafb" d="M 126.5,178.5 C 127.833,179.167 127.833,179.167 126.5,178.5 Z"/></g>
<g><path style="opacity:0.031" fill="#64dafb" d="M 128.5,178.5 C 129.833,179.167 129.833,179.167 128.5,178.5 Z"/></g>
<g><path style="opacity:0.031" fill="#64dafb" d="M 130.5,178.5 C 131.833,179.167 131.833,179.167 130.5,178.5 Z"/></g>
<g><path style="opacity:0.031" fill="#64dafb" d="M 135.5,178.5 C 136.833,179.167 136.833,179.167 135.5,178.5 Z"/></g>
<g><path style="opacity:0.031" fill="#64dafb" d="M 137.5,178.5 C 138.833,179.167 138.833,179.167 137.5,178.5 Z"/></g>
<g><path style="opacity:0.031" fill="#64dafb" d="M 55.5,179.5 C 56.8333,180.167 56.8333,180.167 55.5,179.5 Z"/></g>
<g><path style="opacity:0.031" fill="#64dafb" d="M 57.5,179.5 C 58.8333,180.167 58.8333,180.167 57.5,179.5 Z"/></g>
<g><path style="opacity:0.031" fill="#64dafb" d="M 59.5,179.5 C 60.8333,180.167 60.8333,180.167 59.5,179.5 Z"/></g>
</svg>
